HIERARCHY
ROOT Hips
{
    OFFSET 0.000000 0.000000 0.000000
    CHANNELS 6 Xposition Yposition Zposition Zrotation Xrotation Yrotation
        JOINT Chest
        {
            OFFSET -0.000000 34.099812 -0.000000
            CHANNELS 3 Zrotation Xrotation Yrotation
            JOINT Neck
            {
                OFFSET -0.000000 25.785578 0.000000
                CHANNELS 3 Zrotation Xrotation Yrotation
                JOINT Head
                {
                    OFFSET -0.000000 11.061110 0.000000
                    CHANNELS 3 Zrotation Xrotation Yrotation
                    End Site
                    {
                        OFFSET -0.000000 17.094444 0.000000
                    }
                }
            }
            JOINT LeftCollar
            {
                OFFSET -0.000000 25.785578 0.000000
                CHANNELS 3 Zrotation Xrotation Yrotation
                JOINT LeftShoulder
                {
                    OFFSET 19.000000 -0.000000 0.000000
                    CHANNELS 3 Zrotation Xrotation Yrotation
                    JOINT LeftElbow
                    {
                        OFFSET 29.227484 0.000000 0.000000
                        CHANNELS 3 Zrotation Xrotation Yrotation
                        JOINT LeftWrist
                        {
                            OFFSET 22.377386 0.000000 0.000000
                            CHANNELS 3 Zrotation Xrotation Yrotation
                            End Site
                            {
                                OFFSET 0.000000 -15.083334 0.000000
                            }
                        }
                    }
                }
            }
            JOINT RightCollar
            {
                OFFSET -0.000000 25.785578 0.000000
                CHANNELS 3 Zrotation Xrotation Yrotation
                JOINT RightShoulder
                {
                    OFFSET -19.000000 0.000000 0.000000
                    CHANNELS 3 Zrotation Xrotation Yrotation
                    JOINT RightElbow
                    {
                        OFFSET -29.227484 0.000000 0.000000
                        CHANNELS 3 Zrotation Xrotation Yrotation
                        JOINT RightWrist
                        {
                            OFFSET -22.377386 0.000000 0.000000
                            CHANNELS 3 Zrotation Xrotation Yrotation
                            End Site
                            {
                                OFFSET -0.000000 -15.083334 0.000000
                            }
                        }
                    }
                }
            }
        }
    JOINT LeftHip
    {
        OFFSET 12.066666 0.000000 0.000000
        CHANNELS 3 Zrotation Xrotation Yrotation
        JOINT LeftKnee
        {
            OFFSET -0.000000 -38.619030 0.000000
            CHANNELS 3 Zrotation Xrotation Yrotation
            JOINT LeftAnkle
            {
                OFFSET -0.000000 -42.566540 0.000000
                CHANNELS 3 Zrotation Xrotation Yrotation
                End Site
                {
                    OFFSET -0.000000 -5.027778 17.094444
                }
            }
        }
    }
    JOINT RightHip
    {
        OFFSET -12.066666 0.000000 0.000000
        CHANNELS 3 Zrotation Xrotation Yrotation
        JOINT RightKnee
        {
            OFFSET -0.000000 -38.619030 0.000000
            CHANNELS 3 Zrotation Xrotation Yrotation
            JOINT RightAnkle
            {
                OFFSET -0.000000 -42.566540 0.000000
                CHANNELS 3 Zrotation Xrotation Yrotation
                End Site
                {
                    OFFSET -0.000000 -5.027778 17.094444
                }
            }
        }
    }
}
MOTION
Frames:    5
Frame Time:    0.010000
60.508251    91.533257    -6.722082    7.135921    9.524172    -70.930435    -2.079099    11.641953    4.714338    -8.518856    -8.690445    7.644251    9.882635    -24.616583    10.454439    -13.392945    0.807946    -7.110106    -68.240372    9.281495    -15.260347    6.294068    -1.962477    -35.158184    105.712799    27.939518    88.033340    30.343622    6.452123    23.597210    43.390388    15.460599    -9.977086    3.199746    0.223728    8.378628    -99.445076    1.002045    -15.380732    6.813549    -19.500185    0.642687    -4.540467    15.870600    -0.938702    -9.166265    -12.482816    39.823650    3.203251    -7.692093    -0.876872    -1.985249    14.633533    11.142571    4.700723    -12.928923    -11.917023    
60.507591    91.587555    -6.570979    7.228631    9.654777    -71.232986    -2.084545    11.642355    4.757340    -8.576633    -8.785213    7.742410    10.072678    -24.963179    10.637459    -13.374792    0.840210    -7.118520    -68.160233    8.832287    -15.500958    6.432140    -2.104171    -36.409496    106.604881    29.169096    88.708336    30.355827    6.494821    23.628149    43.398018    15.501657    -9.986852    3.047862    0.229489    8.490561    -99.501854    0.816446    -15.099256    6.826182    -19.466227    0.482687    -4.486956    15.701989    -0.778566    -9.135963    -12.392152    40.069115    3.227933    -7.788802    -0.760050    -1.999229    14.517172    11.127347    4.899069    -12.596195    -11.764167    
60.502125    91.644180    -6.419194    7.305525    9.779726    -71.507957    -2.067645    11.648633    4.808271    -8.634793    -8.880184    7.828041    10.242038    -25.276384    10.801978    -13.350712    0.802668    -7.134607    -68.109673    8.430130    -15.683509    6.690355    -2.324957    -38.018318    107.356720    30.507570    89.351898    30.385908    6.464713    23.632896    43.343674    15.621372    -9.963569    3.032613    0.255480    8.682676    -99.596382    0.697427    -14.958163    6.829633    -19.402031    0.324246    -4.426700    15.505767    -0.606090    -9.127591    -12.307632    40.282146    3.244609    -7.851768    -0.622954    -1.985673    14.379173    11.068648    5.095941    -12.242848    -11.631481    
60.491745    91.702477    -6.267544    7.367000    9.901258    -71.753731    -2.028378    11.659767    4.864674    -8.692677    -8.977844    7.899512    10.392303    -25.554169    10.945924    -13.304478    0.825068    -7.158958    -68.105927    7.972982    -15.891903    6.955603    -2.487142    -39.543972    107.996353    31.656857    90.002068    30.372114    6.501905    23.615547    43.360188    15.656499    -9.953255    2.882810    0.197828    8.764986    -99.572029    0.497160    -14.656596    6.829570    -19.309982    0.186221    -4.362867    15.282607    -0.415162    -9.136714    -12.227856    40.444855    3.256804    -7.882519    -0.485436    -1.952845    14.218834    10.976923    5.294833    -11.873901    -11.510489    
60.476257    91.761459    -6.116686    7.413852    10.021081    -71.969223    -1.968840    11.670696    4.917002    -8.754387    -9.077194    7.957589    10.534167    -25.795664    11.072565    -13.245625    0.845862    -7.180469    -68.123444    7.535121    -16.086615    7.297842    -2.720448    -41.344528    108.546432    32.819176    90.650543    30.380041    6.474817    23.573437    43.311653    15.768412    -9.898155    2.864719    0.223326    8.923661    -99.587585    0.392600    -14.556075    6.829924    -19.193626    0.088720    -4.295770    15.035590    -0.206428    -9.139441    -12.135674    40.539589    3.269547    -7.883493    -0.371179    -1.913817    14.037045    10.865129    5.499992    -11.495348    -11.390026    
